%TF.GenerationSoftware,KiCad,Pcbnew,9.0.4*%
%TF.CreationDate,2025-09-24T21:04:32+02:00*%
%TF.ProjectId,stepperbalancerelektonics,73746570-7065-4726-9261-6c616e636572,rev?*%
%TF.SameCoordinates,Original*%
%TF.FileFunction,Paste,Top*%
%TF.FilePolarity,Positive*%
%FSLAX46Y46*%
G04 Gerber Fmt 4.6, Leading zero omitted, Abs format (unit mm)*
G04 Created by KiCad (PCBNEW 9.0.4) date 2025-09-24 21:04:32*
%MOMM*%
%LPD*%
G01*
G04 APERTURE LIST*
G04 Aperture macros list*
%AMRoundRect*
0 Rectangle with rounded corners*
0 $1 Rounding radius*
0 $2 $3 $4 $5 $6 $7 $8 $9 X,Y pos of 4 corners*
0 Add a 4 corners polygon primitive as box body*
4,1,4,$2,$3,$4,$5,$6,$7,$8,$9,$2,$3,0*
0 Add four circle primitives for the rounded corners*
1,1,$1+$1,$2,$3*
1,1,$1+$1,$4,$5*
1,1,$1+$1,$6,$7*
1,1,$1+$1,$8,$9*
0 Add four rect primitives between the rounded corners*
20,1,$1+$1,$2,$3,$4,$5,0*
20,1,$1+$1,$4,$5,$6,$7,0*
20,1,$1+$1,$6,$7,$8,$9,0*
20,1,$1+$1,$8,$9,$2,$3,0*%
G04 Aperture macros list end*
%ADD10RoundRect,0.162500X0.650000X0.162500X-0.650000X0.162500X-0.650000X-0.162500X0.650000X-0.162500X0*%
%ADD11RoundRect,0.079500X0.100500X-0.079500X0.100500X0.079500X-0.100500X0.079500X-0.100500X-0.079500X0*%
%ADD12RoundRect,0.250000X-0.475000X0.250000X-0.475000X-0.250000X0.475000X-0.250000X0.475000X0.250000X0*%
%ADD13RoundRect,0.079500X-0.100500X0.079500X-0.100500X-0.079500X0.100500X-0.079500X0.100500X0.079500X0*%
%ADD14RoundRect,0.200000X-0.200000X-0.275000X0.200000X-0.275000X0.200000X0.275000X-0.200000X0.275000X0*%
%ADD15RoundRect,0.250000X0.475000X-0.250000X0.475000X0.250000X-0.475000X0.250000X-0.475000X-0.250000X0*%
%ADD16RoundRect,0.200000X0.275000X-0.200000X0.275000X0.200000X-0.275000X0.200000X-0.275000X-0.200000X0*%
%ADD17R,0.800000X0.800000*%
%ADD18RoundRect,0.079500X0.079500X0.100500X-0.079500X0.100500X-0.079500X-0.100500X0.079500X-0.100500X0*%
%ADD19RoundRect,0.225000X-0.375000X0.225000X-0.375000X-0.225000X0.375000X-0.225000X0.375000X0.225000X0*%
%ADD20RoundRect,0.079500X-0.079500X-0.100500X0.079500X-0.100500X0.079500X0.100500X-0.079500X0.100500X0*%
%ADD21RoundRect,0.150000X0.512500X0.150000X-0.512500X0.150000X-0.512500X-0.150000X0.512500X-0.150000X0*%
%ADD22RoundRect,0.475000X0.475000X2.075000X-0.475000X2.075000X-0.475000X-2.075000X0.475000X-2.075000X0*%
G04 APERTURE END LIST*
D10*
%TO.C,PMOS1*%
X176307500Y-107823000D03*
X176307500Y-106553000D03*
X176307500Y-105283000D03*
X176307500Y-104013000D03*
X169132500Y-104013000D03*
X169132500Y-105283000D03*
X169132500Y-106553000D03*
X169132500Y-107823000D03*
%TD*%
D11*
%TO.C,C41*%
X133604000Y-106862000D03*
X133604000Y-106172000D03*
%TD*%
D12*
%TO.C,C18*%
X155448000Y-75758000D03*
X155448000Y-77658000D03*
%TD*%
D13*
%TO.C,C38*%
X152654000Y-108144000D03*
X152654000Y-108834000D03*
%TD*%
D14*
%TO.C,R3*%
X89282000Y-98044000D03*
X90932000Y-98044000D03*
%TD*%
D11*
%TO.C,C12*%
X147320000Y-93726000D03*
X147320000Y-93036000D03*
%TD*%
D12*
%TO.C,C22*%
X157734000Y-75758000D03*
X157734000Y-77658000D03*
%TD*%
D11*
%TO.C,C39*%
X151384000Y-108834000D03*
X151384000Y-108144000D03*
%TD*%
D12*
%TO.C,C19*%
X153162000Y-75758000D03*
X153162000Y-77658000D03*
%TD*%
%TO.C,C26*%
X146304000Y-50866000D03*
X146304000Y-52766000D03*
%TD*%
D11*
%TO.C,C4*%
X166624000Y-103560000D03*
X166624000Y-102870000D03*
%TD*%
D15*
%TO.C,C11*%
X163830000Y-103500000D03*
X163830000Y-101600000D03*
%TD*%
D11*
%TO.C,C16*%
X160020000Y-76987000D03*
X160020000Y-76297000D03*
%TD*%
D12*
%TO.C,C37*%
X154940000Y-106680000D03*
X154940000Y-108580000D03*
%TD*%
D16*
%TO.C,R5*%
X162560000Y-110807000D03*
X162560000Y-109157000D03*
%TD*%
D11*
%TO.C,C32*%
X72898000Y-53365000D03*
X72898000Y-52675000D03*
%TD*%
D17*
%TO.C,D2*%
X96762000Y-110744000D03*
X95262000Y-110744000D03*
%TD*%
D13*
%TO.C,C34*%
X143764000Y-110269000D03*
X143764000Y-110959000D03*
%TD*%
%TO.C,C30*%
X161798000Y-51471000D03*
X161798000Y-52161000D03*
%TD*%
D18*
%TO.C,C14*%
X177891000Y-98044000D03*
X177201000Y-98044000D03*
%TD*%
D12*
%TO.C,C17*%
X150876000Y-75758000D03*
X150876000Y-77658000D03*
%TD*%
D19*
%TO.C,D1*%
X165608000Y-105792000D03*
X165608000Y-109092000D03*
%TD*%
D12*
%TO.C,C25*%
X157734000Y-50866000D03*
X157734000Y-52766000D03*
%TD*%
%TO.C,C23*%
X148590000Y-50866000D03*
X148590000Y-52766000D03*
%TD*%
%TO.C,C35*%
X133604000Y-109606000D03*
X133604000Y-111506000D03*
%TD*%
D13*
%TO.C,C31*%
X160528000Y-107605000D03*
X160528000Y-108295000D03*
%TD*%
%TO.C,C5*%
X149098000Y-93036000D03*
X149098000Y-93726000D03*
%TD*%
D15*
%TO.C,C8*%
X157734000Y-103500000D03*
X157734000Y-101600000D03*
%TD*%
D12*
%TO.C,C20*%
X146304000Y-75758000D03*
X146304000Y-77658000D03*
%TD*%
D20*
%TO.C,C2*%
X177201000Y-99822000D03*
X177891000Y-99822000D03*
%TD*%
D12*
%TO.C,C36*%
X131318000Y-109606000D03*
X131318000Y-111506000D03*
%TD*%
D11*
%TO.C,C29*%
X160020000Y-52161000D03*
X160020000Y-51471000D03*
%TD*%
D21*
%TO.C,U1*%
X148336000Y-111186000D03*
X148336000Y-110236000D03*
X148336000Y-109286000D03*
X146061000Y-109286000D03*
X146061000Y-110236000D03*
X146061000Y-111186000D03*
%TD*%
D14*
%TO.C,R4*%
X96394000Y-98044000D03*
X98044000Y-98044000D03*
%TD*%
%TO.C,R1*%
X91694000Y-110744000D03*
X93344000Y-110744000D03*
%TD*%
D15*
%TO.C,C7*%
X155702000Y-103500000D03*
X155702000Y-101600000D03*
%TD*%
D13*
%TO.C,C15*%
X161798000Y-76297000D03*
X161798000Y-76987000D03*
%TD*%
%TO.C,C33*%
X71374000Y-52675000D03*
X71374000Y-53365000D03*
%TD*%
D11*
%TO.C,C13*%
X147320000Y-68072000D03*
X147320000Y-67382000D03*
%TD*%
D13*
%TO.C,C6*%
X148844000Y-67382000D03*
X148844000Y-68072000D03*
%TD*%
D12*
%TO.C,C28*%
X155448000Y-50866000D03*
X155448000Y-52766000D03*
%TD*%
D11*
%TO.C,C1*%
X165354000Y-103560000D03*
X165354000Y-102870000D03*
%TD*%
D18*
%TO.C,C3*%
X177891000Y-101854000D03*
X177201000Y-101854000D03*
%TD*%
D12*
%TO.C,C21*%
X148590000Y-75758000D03*
X148590000Y-77658000D03*
%TD*%
D15*
%TO.C,C9*%
X159766000Y-103500000D03*
X159766000Y-101600000D03*
%TD*%
D12*
%TO.C,C24*%
X153162000Y-50866000D03*
X153162000Y-52766000D03*
%TD*%
D22*
%TO.C,L1*%
X140784000Y-107442000D03*
X136584000Y-107442000D03*
%TD*%
D15*
%TO.C,C10*%
X161798000Y-103500000D03*
X161798000Y-101600000D03*
%TD*%
D12*
%TO.C,C27*%
X150876000Y-50866000D03*
X150876000Y-52766000D03*
%TD*%
D13*
%TO.C,C40*%
X131318000Y-106172000D03*
X131318000Y-106862000D03*
%TD*%
M02*
